<svg width="168" height="257" viewBox="0 0 168 257" fill="none" xmlns="http://www.w3.org/2000/svg">
<path d="M160.023 6.84397L160.033 6.86675L160.043 6.88919C161.643 10.2078 160.759 14.2024 158.444 17.3422C155.893 20.8024 151.764 22.6011 147.312 23.2058C144.285 23.5723 141.231 23.5507 138.224 23.1471C138.527 22.6882 138.81 22.2096 139.069 21.7113C141.355 17.3217 141.832 11.6022 138.972 7.07794C136.864 3.74448 132.985 1.79138 129.182 1.53034C125.35 1.26729 121.307 2.7175 119.132 6.55728C116.33 11.506 117.759 17.665 121.266 21.5754C122.626 23.0908 124.208 24.2838 125.911 25.2305C125.248 25.4197 124.57 25.572 123.883 25.6877C118.805 26.5426 113.615 25.3603 108.562 23.5631C104.629 22.1642 100.802 20.5297 96.93 18.8761C95.3565 18.2041 93.7756 17.529 92.1772 16.8652C81.5074 12.4343 70.4733 8.21206 58.8161 6.41918C41.021 3.68233 19.5266 7.87921 8.34245 23.8968L9.57231 24.7555L8.34244 23.8968C2.29176 32.5624 0.623677 43.3554 1.90319 53.5133C3.25658 64.2576 7.96259 74.0717 14.1186 82.6937L14.126 82.7039C14.6011 83.3576 15.0826 84.0065 15.5704 84.6505C11.4601 87.1332 8.12981 90.8304 6.68651 95.7591C5.95041 98.0001 5.84461 100.4 6.38093 102.698C6.91932 105.004 8.08391 107.117 9.74635 108.804L9.76405 108.821L9.78235 108.839C11.7679 110.722 14.2363 112.019 16.9139 112.585C19.5915 113.151 22.3735 112.964 24.9513 112.045L24.9978 112.028L25.0431 112.008C27.9021 110.772 30.1988 108.516 31.4862 105.679C32.7736 102.843 32.9595 99.6284 32.0078 96.6623L31.9983 96.6326L31.9875 96.6034C31.2093 94.4848 29.9614 92.5702 28.3375 91.0033C27.0974 89.6783 25.8768 88.3308 24.686 86.9583C25.0312 86.8861 25.3791 86.8234 25.7292 86.7704L25.7404 86.7687L25.7516 86.7669C33.8568 85.4133 42.5334 88.4188 48.8483 93.7393C55.9402 99.7144 60.0205 108.884 62.1913 118.009C64.5528 127.935 64.7744 138.15 64.9991 148.506C65.0092 148.973 65.0193 149.439 65.0297 149.906C65.2737 160.939 65.6911 172.304 68.9243 183.182L68.9256 183.186C71.5497 191.924 75.6006 200.167 80.9144 207.584C91.5203 222.513 106.597 233.685 123.967 239.487L123.979 239.491C128.188 240.857 132.503 241.868 136.88 242.513C137.722 242.638 138.519 242.402 139.105 241.85C139.654 241.334 139.909 240.646 139.958 240.016C140.054 238.778 139.332 237.181 137.528 236.914C119.194 234.196 102.294 224.259 90.1833 210.258L90.1811 210.256C84.1207 203.281 79.331 195.297 76.0297 186.667C72.1026 176.316 71.0879 165.269 70.7611 154.07C70.7039 152.111 70.662 150.141 70.6199 148.163C70.4175 138.642 70.2111 128.937 68.2803 119.437C66.2176 109.288 62.1417 98.8368 54.4655 91.2601C51.0419 87.8504 46.9625 85.1703 42.4739 83.3817C37.9841 81.5927 33.1782 80.7328 28.3467 80.854L28.3308 80.8544L28.3149 80.8552C25.832 80.9702 23.2731 81.4347 20.8125 82.2513C16.3043 76.4454 12.4768 70.1877 10.0195 63.3255C6.52161 53.5576 5.84711 42.4291 9.80669 32.8891C13.532 23.9135 20.8104 18.028 29.4973 14.6923C38.2019 11.3499 48.2533 10.6013 57.3009 11.8901C69.2078 13.5862 80.5209 18.1003 91.7582 22.7983C93.0576 23.3415 94.3656 23.9034 95.6829 24.4693C100.099 26.3662 104.619 28.308 109.27 29.7431C114.726 31.4268 120.738 32.3247 126.591 30.8869C128.986 30.2986 131.322 29.3239 133.391 27.9426C134.317 28.1489 135.237 28.3197 136.14 28.4646C141.095 29.2593 146.7 29.3599 151.786 27.9867C156.892 26.6082 161.535 23.7208 164.357 18.529C165.591 16.4218 166.307 14.0513 166.446 11.6128C166.585 9.16543 166.138 6.72021 165.143 4.48011L165.123 4.43476L165.099 4.39085C164.759 3.74351 164.18 3.25373 163.485 3.02489C162.791 2.79605 162.034 2.84605 161.376 3.16429C160.717 3.48256 160.208 4.04422 159.955 4.73072C159.703 5.41707 159.727 6.1747 160.023 6.84397ZM15.6128 91.6664C16.6779 90.6719 17.8478 89.8087 19.0973 89.0893C20.9046 91.2589 22.7869 93.3659 24.741 95.4066L24.7595 95.4259L24.7786 95.4445C25.7939 96.4318 26.4927 97.6986 26.7862 99.0839C27.0795 100.468 26.955 101.908 26.4285 103.221C25.1109 106.454 21.7966 107.693 18.4112 107.095C15.0013 106.493 12.1155 104.12 11.7199 100.756L10.2302 100.932L11.7199 100.756C11.3455 97.5735 13.1411 94.0763 15.6128 91.6664ZM134.088 19.1111C133.563 20.1092 132.891 20.9954 132.104 21.7714C127.872 20.385 124.17 17.7921 123.411 13.7254C122.857 10.7588 124.156 8.03345 126.739 7.33808C127.928 7.0392 129.174 7.05078 130.357 7.37179C131.537 7.69181 132.614 8.30864 133.488 9.16334C135.848 11.6365 135.807 15.8416 134.088 19.1111Z" fill="#FDA4AF" stroke="#FDA4AF" stroke-width="3"/>
<path d="M150.731 239.437C152.372 240.937 151.869 243.638 149.798 244.446L137.925 249.08C135.733 249.936 133.454 248.05 133.885 245.736L136.349 232.505C136.78 230.191 139.585 229.252 141.322 230.839L150.731 239.437Z" fill="#FDA4AF"/>
</svg>
