<svg width="339" height="339" viewBox="0 0 339 339" fill="none" xmlns="http://www.w3.org/2000/svg">
<rect width="339" height="339" fill="rgba(255,255,255,.05)"/>
<g clip-path="url(#clip0_1206_7)">
<path d="M176.637 168.162H162.363C161.625 168.162 161.025 168.761 161.025 169.5C161.025 170.239 161.625 170.838 162.363 170.838H176.637C177.376 170.838 177.975 170.239 177.975 169.5C177.975 168.761 177.376 168.162 176.637 168.162ZM176.637 161.025H162.363C161.625 161.025 161.025 161.624 161.025 162.363C161.025 163.102 161.625 163.701 162.363 163.701H176.637C177.376 163.701 177.975 163.102 177.975 162.363C177.975 161.624 177.376 161.025 176.637 161.025ZM170.838 175.299H162.363C161.625 175.299 161.025 175.898 161.025 176.637C161.025 177.375 161.625 177.975 162.363 177.975H170.838C171.577 177.975 172.176 177.375 172.176 176.637C172.176 175.898 171.577 175.299 170.838 175.299Z" fill="#BBBBBB"/>
<path d="M190.018 168.162H184.22V155.672C184.22 153.46 182.418 151.658 180.205 151.658H158.795C156.582 151.658 154.78 153.46 154.78 155.672V183.328C154.78 185.54 156.582 187.342 158.795 187.342H186.45C189.157 187.342 191.357 185.142 191.357 182.436V169.5C191.357 168.761 190.757 168.162 190.018 168.162ZM157.457 183.328V155.672C157.457 154.935 158.058 154.334 158.795 154.334H180.205C180.942 154.334 181.543 154.935 181.543 155.672V182.436C181.543 183.242 181.758 183.993 182.105 184.666H158.795C158.058 184.666 157.457 184.065 157.457 183.328ZM186.45 184.666C185.219 184.666 184.22 183.667 184.22 182.436V170.838H188.68V182.436C188.68 183.667 187.681 184.666 186.45 184.666Z" fill="#BBBBBB"/>
</g>
<defs>
<clipPath id="clip0_1206_7">
<rect width="42.8211" height="42.8211" fill="white" transform="translate(148.089 148.089)"/>
</clipPath>
</defs>
</svg>
