<svg width="168" height="257" viewBox="0 0 168 257" fill="none" xmlns="http://www.w3.org/2000/svg">
<path d="M7.94794 6.84397L7.93787 6.86675L7.92705 6.88919C6.32732 10.2078 7.21129 14.2024 9.52654 17.3422C12.0779 20.8024 16.2064 22.6011 20.6587 23.2058C23.6855 23.5723 26.7394 23.5507 29.7467 23.1471C29.4432 22.6882 29.1607 22.2096 28.9011 21.7113C26.615 17.3217 26.1385 11.6022 28.9988 7.07794C31.1062 3.74448 34.9857 1.79138 38.7887 1.53034C42.6208 1.26729 46.6634 2.7175 48.8381 6.55728C51.6408 11.506 50.2111 17.665 46.704 21.5754C45.3449 23.0908 43.7628 24.2838 42.0594 25.2305C42.7222 25.4197 43.4006 25.572 44.0878 25.6877C49.1654 26.5426 54.3559 25.3603 59.4083 23.5631C63.341 22.1642 67.1684 20.5297 71.0404 18.8761C72.6139 18.2041 74.1949 17.529 75.7932 16.8652C86.4631 12.4343 97.4971 8.21206 109.154 6.41918C126.949 3.68233 148.444 7.87921 159.628 23.8968L158.398 24.7555L159.628 23.8968C165.679 32.5624 167.347 43.3554 166.067 53.5133C164.714 64.2576 160.008 74.0717 153.852 82.6937L153.844 82.7039C153.369 83.3576 152.888 84.0065 152.4 84.6505C156.51 87.1332 159.841 90.8304 161.284 95.7591C162.02 98.0001 162.126 100.4 161.59 102.698C161.051 105.004 159.887 107.117 158.224 108.804L158.206 108.821L158.188 108.839C156.203 110.722 153.734 112.019 151.057 112.585C148.379 113.151 145.597 112.964 143.019 112.045L142.973 112.028L142.927 112.008C140.068 110.772 137.772 108.516 136.484 105.679C135.197 102.843 135.011 99.6284 135.963 96.6623L135.972 96.6326L135.983 96.6034C136.761 94.4848 138.009 92.5702 139.633 91.0033C140.873 89.6783 142.094 88.3308 143.284 86.9583C142.939 86.8861 142.591 86.8234 142.241 86.7704L142.23 86.7687L142.219 86.7669C134.114 85.4133 125.437 88.4188 119.122 93.7393C112.03 99.7144 107.95 108.884 105.779 118.009C103.418 127.935 103.196 138.15 102.971 148.506C102.961 148.973 102.951 149.439 102.941 149.906C102.697 160.939 102.279 172.304 99.0461 183.182L99.0449 183.186C96.4208 191.924 92.3699 200.167 87.056 207.584C76.4501 222.513 61.3735 233.685 44.0033 239.487L43.9911 239.491C39.7828 240.857 35.4676 241.868 31.0905 242.513C30.2482 242.638 29.4514 242.402 28.8652 241.85C28.3163 241.334 28.0617 240.646 28.0128 240.016C27.9167 238.778 28.6381 237.181 30.4427 236.914C48.776 234.196 65.6765 224.259 77.7871 210.258L77.7893 210.256C83.8497 203.281 88.6395 195.297 91.9408 186.667C95.8679 176.316 96.8826 165.269 97.2094 154.07C97.2666 152.111 97.3085 150.141 97.3505 148.163C97.553 138.642 97.7594 128.937 99.6902 119.437C101.753 109.288 105.829 98.8368 113.505 91.2601C116.929 87.8504 121.008 85.1703 125.497 83.3817C129.986 81.5927 134.792 80.7328 139.624 80.854L139.64 80.8544L139.656 80.8552C142.138 80.9702 144.697 81.4347 147.158 82.2513C151.666 76.4454 155.494 70.1877 157.951 63.3255C161.449 53.5576 162.123 42.4291 158.164 32.8891C154.438 23.9135 147.16 18.028 138.473 14.6923C129.769 11.3499 119.717 10.6013 110.67 11.8901C98.7627 13.5862 87.4496 18.1003 76.2123 22.7983C74.9129 23.3415 73.6049 23.9034 72.2876 24.4693C67.8717 26.3662 63.3515 28.308 58.7006 29.7431C53.2444 31.4268 47.2328 32.3247 41.3795 30.8869C38.9847 30.2986 36.6488 29.3239 34.5791 27.9426C33.6538 28.1489 32.7333 28.3197 31.8303 28.4646C26.8755 29.2593 21.27 29.3599 16.1843 27.9867C11.0789 26.6082 6.43513 23.7208 3.61391 18.529C2.37939 16.4218 1.66327 14.0513 1.5247 11.6128C1.38564 9.16543 1.83237 6.72021 2.82777 4.48011L2.84792 4.43476L2.87102 4.39085C3.21158 3.74351 3.79027 3.25373 4.48503 3.02489C5.17979 2.79605 5.93628 2.84605 6.59488 3.16429C7.25351 3.48256 7.76271 4.04422 8.01514 4.73072C8.2675 5.41707 8.24359 6.1747 7.94794 6.84397ZM152.358 91.6664C151.293 90.6719 150.123 89.8087 148.873 89.0893C147.066 91.2589 145.184 93.3659 143.229 95.4066L143.211 95.4259L143.192 95.4445C142.177 96.4318 141.478 97.6986 141.184 99.0839C140.891 100.468 141.015 101.908 141.542 103.221C142.86 106.454 146.174 107.693 149.559 107.095C152.969 106.493 155.855 104.12 156.251 100.756L157.74 100.932L156.251 100.756C156.625 97.5735 154.829 94.0763 152.358 91.6664ZM33.8825 19.1111C34.4072 20.1092 35.0795 20.9954 35.8661 21.7714C40.0981 20.385 43.8003 17.7921 44.5593 13.7254C45.113 10.7588 43.8149 8.03345 41.2314 7.33808C40.0425 7.0392 38.7967 7.05078 37.6135 7.37179C36.4339 7.69181 35.3561 8.30864 34.4827 9.16334C32.1228 11.6365 32.1636 15.8416 33.8825 19.1111Z" fill="#FDA4AF" stroke="#FDA4AF" stroke-width="3"/>
<path d="M17.2399 239.437C15.5988 240.937 16.1019 243.638 18.1728 244.446L30.0457 249.08C32.2378 249.936 34.5167 248.05 34.0858 245.736L31.6214 232.505C31.1906 230.191 28.3855 229.252 26.6484 230.839L17.2399 239.437Z" fill="#FDA4AF"/>
</svg>
